<?xml version="1.0" encoding="utf-8"?>
<!-- Generator: Adobe Illustrator 21.1.0, SVG Export Plug-In . SVG Version: 6.00 Build 0)  -->
<svg version="1.1" baseProfile="basic" id="Layer_1"
	 xmlns="http://www.w3.org/2000/svg" xmlns:xlink="http://www.w3.org/1999/xlink" x="0px" y="0px" viewBox="0 0 96 96"
	 xml:space="preserve">
<path fill="#1D1D1B" d="M48,75.7c-23.4,0-41.7-24.3-42.4-25.3L3.8,48l1.8-2.4c0.8-1,19-25.3,42.4-25.3c23.4,0,41.7,24.3,42.4,25.3
	l1.8,2.4l-1.8,2.4C89.7,51.4,71.4,75.7,48,75.7z M13.9,48c4.9,5.7,18.6,19.7,34.1,19.7c15.5,0,29.2-14,34.1-19.7
	C77.1,42.3,63.5,28.3,48,28.3C32.5,28.3,18.8,42.3,13.9,48z"/>
<circle fill="#1D1D1B" cx="48" cy="48" r="15"/>
<path fill="#1D1D1B" d="M91.7,79.3c0,3.1-2.5,5.7-5.7,5.7s-5.7-2.5-5.7-5.7C80.3,76.2,86,63,86,63S91.7,76.2,91.7,79.3z"/>
</svg>
